<svg viewBox="0 0 371 58" fill="none" xmlns="http://www.w3.org/2000/svg">
    <style>
        #jetstream { fill: #000 } @media (prefers-color-scheme:dark) { #jetstream { fill: #fff } }
    </style>
    <path d="M13.9 52.8C5.9 47.8 0.5 38.9 0.5 28.7C0.5 13.1 13.1 0.400024 28.7 0.400024C34.6 0.400024 40.4 2.20002 45.2 5.70002C44.9 26.9 32.1 45 13.9 52.8Z" fill="#6875F5"/>
    <path d="M17.1 54.5999C20.7 56.1999 24.7 57.0999 28.7 57.0999C44.3 57.0999 56.9 44.4 56.9 28.7999C56.9 24.6999 56 20.7 54.4 17.2C49 35 34.9 49.0999 17.1 54.5999Z" fill="#6875F5"/>
    <path id="jetstream" d="M87.6 35.9001V15.8H82.7V40.6H97V35.9001H87.6ZM112.7 22.9V25C111.4 23.4 109.5 22.4 106.9 22.4C102.2 22.4 98.3 26.5001 98.3 31.7001C98.3 37.0001 102.2 41 106.9 41C109.5 41 111.4 40.0001 112.7 38.4001V40.5H117.3V22.9H112.7ZM107.7 36.7001C104.9 36.7001 102.8 34.7001 102.8 31.7001C102.8 28.7001 104.9 26.7 107.7 26.7C110.5 26.7 112.6 28.7001 112.6 31.7001C112.6 34.7001 110.6 36.7001 107.7 36.7001ZM125.9 25.9V22.9H121.3V40.6H125.9V32.2001C125.9 28.5001 128.9 27.4 131.3 27.7V22.6C129 22.5 126.8 23.5 125.9 25.9ZM146.7 22.9V25C145.4 23.4 143.5 22.4 140.9 22.4C136.2 22.4 132.3 26.5001 132.3 31.7001C132.3 37.0001 136.2 41 140.9 41C143.5 41 145.4 40.0001 146.7 38.4001V40.5H151.2V22.9H146.7ZM141.7 36.7001C138.9 36.7001 136.8 34.7001 136.8 31.7001C136.8 28.7001 138.9 26.7 141.7 26.7C144.5 26.7 146.6 28.7001 146.6 31.7001C146.6 34.7001 144.6 36.7001 141.7 36.7001ZM166.9 22.9L162.6 35.2001L158.4 22.9H153.4L160.1 40.6H165.2L171.9 22.9H166.9ZM190.8 31.7001C190.8 26.5001 187.1 22.4 181.9 22.4C176.4 22.4 172.6 26.5001 172.6 31.7001C172.6 37.0001 176.3 41 182.3 41C185.7 41 188.3 39.6001 190 37.2001L186.3 35.1C185.5 36.1 184.1 36.9001 182.4 36.9001C180 36.9001 178.1 35.9 177.4 33.6H190.7C190.7 33 190.8 32.4001 190.8 31.7001ZM177.2 30.1C177.7 27.8 179.4 26.5 181.8 26.5C183.7 26.5 185.6 27.5 186.2 30.1H177.2ZM193.9 14.8H198.4V40.6H193.9V14.8Z" fill="#2E2E2E"/>
    <path id="jetstream" d="M218.3 41C222.6 41 226.4 38.6 226.4 33.6V15.8H224V33.5C224 37.1 221.6 38.5 218.4 38.5C215.8 38.5 213.8 37.6001 213 35.4001L210.9 36.6C212 39.6 215 41 218.3 41ZM239.3 22.5C233.8 22.5 230.1 26.6 230.1 31.8C230.1 37.1 233.9 41.1 239.5 41.1C243.1 41.1 245.8 39.4 247.3 37L245.3 35.8C244.3 37.5 242.4 38.8 239.6 38.8C235.9 38.8 233.1 36.6 232.6 33H248C248 32.6 248.1 32.3001 248.1 31.9001C248.1 26.9001 244.7 22.5 239.3 22.5ZM239.3 24.7001C242.3 24.7001 245.2 26.7 245.7 30.6H232.5C233 27.2 235.6 24.7001 239.3 24.7001ZM260.6 25.1V22.8H255.5V17.9L253.2 18.6V22.8H249.5V25.1H253.2V35.8C253.2 40 255.8 41.2 260.6 40.5V38.5C257.2 38.6 255.5 38.9001 255.5 35.9001V25.1H260.6ZM265.3 27.5C265.3 25.6 267.2 24.7001 269 24.7001C270.7 24.7001 272.5 25.4001 273.2 27.2001L275.1 26.1C274.1 23.9 271.8 22.5 268.9 22.5C265.4 22.5 262.9 24.7 262.9 27.6C262.9 34.1 273.2 31.6 273.2 36C273.2 38.1 271.2 38.8 269.1 38.8C266.7 38.8 264.9 37.6 264.3 35.8L262.3 37C263.2 39.3 265.6 41.1 269.1 41.1C272.9 41.1 275.5 39 275.5 36C275.6 29.4 265.3 31.9 265.3 27.5ZM288.1 25.1V22.8H283V17.9L280.7 18.6V22.8H277V25.1H280.7V35.8C280.7 40 283.3 41.2 288.1 40.5V38.5C284.7 38.6 283 38.9001 283 35.9001V25.1H288.1ZM294.3 25.8V22.9H292V40.6H294.3V30.8C294.3 26.4 297 24.9 299.9 24.9V22.6C297.6 22.6 295.6 23.3 294.3 25.8ZM310.2 22.5C304.7 22.5 301 26.6 301 31.8C301 37.1 304.8 41.1 310.4 41.1C314 41.1 316.7 39.4 318.2 37L316.2 35.8C315.2 37.5 313.3 38.8 310.5 38.8C306.8 38.8 304 36.6 303.5 33H319C319 32.6 319.1 32.3001 319.1 31.9001C318.9 26.9001 315.6 22.5 310.2 22.5ZM310.2 24.7001C313.2 24.7001 316.1 26.7 316.5 30.6H303.3C303.8 27.2 306.5 24.7001 310.2 24.7001ZM337.8 22.9V26.4C336.3 24 333.8 22.5 330.7 22.5C325.7 22.5 321.6 26.5 321.6 31.8C321.6 37.1 325.7 41.1 330.7 41.1C333.8 41.1 336.3 39.6001 337.8 37.2001V40.7001H340.1V22.9H337.8ZM330.8 38.7001C326.9 38.7001 323.8 35.6001 323.8 31.7001C323.8 27.8001 326.8 24.7001 330.8 24.7001C334.8 24.7001 337.8 27.8001 337.8 31.7001C337.8 35.6001 334.8 38.7001 330.8 38.7001ZM363.8 22.5C361.5 22.5 359.4 23.5001 358.1 25.7001C357.1 23.7001 355.2 22.5 352.7 22.5C350.6 22.5 348.7 23.3 347.3 25.5V22.9H345V40.6H347.3V30.8C347.3 26.4 349.8 24.8 352.4 24.8C354.9 24.8 356.5 26.5001 356.5 29.6V40.6H358.8V30.8C358.8 26.4 361 24.8 363.7 24.8C366.2 24.8 368 26.5001 368 29.6V40.6H370.3V29.6C370.4 25.1 367.7 22.5 363.8 22.5Z" fill="#2E2E2E"/>
</svg>
